<svg version="1.1" id="Layer_1" xmlns="http://www.w3.org/2000/svg" xmlns:xlink="http://www.w3.org/1999/xlink" x="0px" y="0px"
	 width="100%" viewBox="0 0 310 310" enable-background="new 0 0 310 310" xml:space="preserve">
<path fill="#000000" opacity="1.000000" stroke="none" 
	d="
M311.000000,112.000000 
	C311.000000,178.666672 311.000000,244.833328 311.000000,311.000000 
	C207.666672,311.000000 104.333336,311.000000 1.000000,311.000000 
	C1.000000,207.666672 1.000000,104.333336 1.000000,1.000000 
	C104.333336,1.000000 207.666672,1.000000 311.000000,1.000000 
	C311.000000,37.833332 311.000000,74.666664 311.000000,112.000000 
M246.682419,271.965576 
	C247.134354,271.655182 247.586304,271.344788 248.637070,270.824463 
	C249.460037,270.231659 250.282990,269.638855 251.784042,268.976959 
	C253.224426,268.000397 254.664825,267.023834 256.734711,265.961578 
	C257.518951,265.323822 258.303162,264.686096 259.696136,263.793762 
	C261.129669,262.842621 262.563171,261.891449 264.624817,260.802368 
	C265.686432,259.866669 266.748077,258.930969 268.142120,257.397095 
	C269.450500,256.609436 270.758850,255.821793 272.694427,254.771332 
	C276.008423,252.126495 279.335602,249.497986 282.631622,246.830963 
	C284.745728,245.120285 285.260956,243.418198 284.290222,240.432419 
	C278.833221,223.647537 268.336273,210.057907 256.665283,197.462021 
	C247.828674,187.925110 237.797073,179.481750 228.147385,170.716751 
	C221.891022,165.033936 221.770157,165.166992 215.339447,170.296341 
	C212.880829,172.505142 210.422211,174.713928 207.361237,177.156754 
	C206.229172,178.073654 205.097107,178.990570 203.354095,180.162582 
	C201.888321,181.405701 200.422531,182.648804 198.317230,184.027985 
	C197.198349,184.983643 196.079468,185.939285 194.288055,187.003448 
	C193.193970,187.761765 192.099884,188.520081 190.394363,189.386337 
	C189.255951,190.270599 188.117538,191.154877 186.339325,192.220200 
	C184.904221,193.239212 183.469101,194.258240 181.415588,195.387787 
	C180.282288,196.319366 179.148972,197.250946 177.379868,198.251495 
	C176.236588,199.135498 175.093292,200.019501 173.303604,201.008057 
	C172.539093,201.398727 171.774582,201.789398 170.389893,202.274261 
	C169.246750,203.145004 168.103607,204.015747 166.270798,205.019897 
	C164.851166,205.804779 163.431534,206.589645 161.417709,207.602722 
	C159.598373,208.694717 157.779022,209.786728 155.249634,211.029236 
	C152.169800,212.437164 149.089966,213.845093 145.329239,215.427658 
	C137.748795,217.674026 130.141205,219.835068 122.608910,222.232681 
	C120.933380,222.766037 119.522972,224.132278 117.320267,224.764435 
	C117.186882,224.118423 117.165581,223.422577 116.903809,222.833633 
	C109.260971,205.638962 105.500618,187.426819 104.162643,168.846985 
	C102.929657,151.724945 104.133194,134.546371 108.668915,117.890778 
	C111.158607,108.748375 114.830612,99.927956 118.447273,91.562332 
	C125.635864,93.315331 132.824463,95.068329 140.638412,97.170601 
	C144.097580,98.717133 147.556732,100.263672 151.630875,102.143082 
	C153.729507,103.107872 155.828125,104.072655 158.327759,105.588242 
	C160.542389,106.750366 162.757019,107.912491 165.350418,109.607994 
	C166.894363,110.407692 168.438293,111.207390 170.389664,112.549530 
	C172.578415,113.731339 174.767181,114.913147 177.293900,116.664734 
	C179.533524,118.046120 181.773132,119.427513 184.603851,121.119690 
	C186.056885,122.104546 187.509903,123.089401 189.256088,124.649918 
	C190.839920,125.698814 192.423752,126.747711 194.571579,128.091400 
	C195.717117,128.968628 196.862640,129.845871 198.549713,131.048309 
	C199.696671,131.909851 200.843613,132.771408 202.547943,134.039612 
	C204.019485,135.056473 205.491013,136.073334 207.208923,137.659378 
	C208.521057,138.568253 209.833176,139.477142 211.510544,140.948578 
	C213.015411,142.172653 214.520264,143.396713 216.581543,145.054214 
	C217.627457,146.087234 218.517563,147.482727 219.775162,148.023224 
	C220.585876,148.371674 221.935791,147.465546 223.749954,147.004272 
	C230.804245,141.193176 238.263489,135.800186 244.807404,129.462158 
	C252.498993,122.012566 259.754486,114.036285 266.542633,105.750610 
	C274.187988,96.418617 280.837311,86.329033 284.133759,74.478630 
	C284.531860,73.047493 284.949463,70.705322 284.217102,70.038567 
	C281.396973,67.471039 278.113098,65.412865 274.372833,62.858032 
	C273.246918,61.850056 272.121033,60.842079 270.774628,59.277401 
	C269.872559,58.508190 268.970490,57.738979 267.748566,56.351303 
	C265.428375,54.902996 263.108185,53.454689 260.635590,51.345982 
	C258.455902,50.214695 256.276245,49.083405 253.802536,47.338329 
	C252.235092,46.541931 250.667664,45.745533 248.810593,44.338360 
	C247.242188,43.544060 245.673782,42.749756 243.755600,41.357086 
	C241.872192,40.556133 239.988770,39.755180 237.750809,38.359509 
	C235.866592,37.557796 233.982361,36.756088 231.733398,35.361725 
	C229.837952,34.562935 227.942520,33.764145 225.631363,32.416595 
	C224.114960,31.934374 222.598541,31.452152 220.856720,30.568518 
	C220.659546,30.280970 220.389816,30.170364 219.381546,30.075016 
	C218.928711,30.015541 218.475876,29.956066 217.692703,29.374220 
	C217.097641,29.233727 216.502579,29.093233 215.747116,28.674103 
	C215.606979,28.486397 215.420135,28.401690 214.497223,28.140984 
	C214.005249,28.080250 213.513260,28.019516 212.622711,27.434212 
	C211.766647,27.280426 210.910583,27.126640 209.833466,26.602171 
	C209.647003,26.340008 209.394485,26.231312 208.401016,26.109091 
	C207.940216,26.059385 207.479401,26.009680 206.527359,25.418224 
	C204.373032,24.935482 202.218719,24.452738 199.711746,23.514372 
	C199.163086,23.411354 198.614410,23.308338 197.388962,23.079601 
	C196.932205,23.035721 196.475449,22.991842 195.571304,22.429081 
	C194.040695,22.612803 192.510101,22.796524 190.934341,22.181013 
	C187.896118,21.432549 184.878311,20.585440 181.816299,19.951998 
	C164.867477,16.445797 147.918488,16.346939 130.757706,18.864069 
	C106.323677,22.448036 84.406273,31.332758 64.822540,46.508350 
	C49.708420,58.220409 38.072769,72.661148 29.410429,89.442085 
	C20.163750,107.355003 15.395082,126.714493 14.130255,146.775833 
	C13.174442,161.935913 13.565009,177.204605 17.131155,192.038773 
	C26.178350,229.672562 46.080914,259.472137 80.252419,279.179016 
	C101.712601,291.555206 124.750061,297.257111 149.218063,297.892639 
	C156.639465,298.085358 164.131378,297.708801 171.507309,296.863098 
	C178.009384,296.117584 184.394760,294.354126 191.300522,292.643127 
	C192.869308,292.431091 194.438095,292.219055 196.696182,291.962067 
	C197.152390,291.903229 197.608582,291.844360 198.610611,291.810181 
	C199.068161,291.541016 199.525711,291.271851 200.766403,290.963562 
	C203.835526,289.960480 206.904648,288.957397 210.738312,287.913391 
	C211.227814,287.783966 211.717300,287.654510 212.490326,287.464233 
	C212.667786,287.365967 212.796127,287.223389 213.591843,286.950989 
	C215.088211,286.316620 216.584564,285.682220 218.772415,284.987640 
	C220.190353,284.351868 221.608292,283.716125 223.759171,282.972809 
	C224.231613,282.841461 224.704056,282.710114 225.491608,282.532318 
	C225.685364,282.421722 225.819626,282.261292 226.476089,281.869415 
	C226.975449,281.524078 227.474808,281.178711 228.653397,280.708893 
	C230.472824,279.823517 232.292267,278.938171 234.687943,277.983704 
	C235.133881,277.683746 235.579834,277.383820 236.722214,276.968384 
	C238.513809,275.993134 240.305405,275.017883 242.677048,273.976898 
	C243.128006,273.676575 243.578964,273.376251 244.535355,272.971344 
	C244.698700,272.917328 244.862061,272.863312 245.523605,272.822693 
	C245.829315,272.645416 246.023376,272.384949 246.682419,271.965576 
M122.036392,160.324112 
	C123.898346,172.900894 122.392403,186.040833 127.858444,198.581421 
	C135.257904,195.558960 142.131714,193.005295 148.791641,189.980713 
	C165.306717,182.480408 179.885574,171.866089 194.313232,161.057068 
	C198.101273,158.219101 197.941391,156.405136 193.691833,153.482361 
	C182.509583,145.791336 171.633286,137.549606 159.910416,130.782684 
	C149.839737,124.969490 138.768158,120.890236 127.798813,115.889053 
	C122.292526,130.795120 123.299133,145.238480 122.036392,160.324112 
z"/>
<path fill="#9E63DB" opacity="1.000000" stroke="none" 
	d="
M117.969513,90.962357 
	C114.830612,99.927956 111.158607,108.748375 108.668915,117.890778 
	C104.133194,134.546371 102.929657,151.724945 104.162643,168.846985 
	C105.500618,187.426819 109.260971,205.638962 116.903809,222.833633 
	C117.165581,223.422577 117.186882,224.118423 117.645645,225.302063 
	C123.834412,239.197098 131.784180,251.325623 141.621307,261.940765 
	C151.753845,272.874695 163.651489,281.778656 177.714676,287.397247 
	C182.133224,289.162567 186.461868,291.152863 190.831665,293.040192 
	C184.394760,294.354126 178.009384,296.117584 171.507309,296.863098 
	C164.131378,297.708801 156.639465,298.085358 149.218063,297.892639 
	C124.750061,297.257111 101.712601,291.555206 80.252419,279.179016 
	C46.080914,259.472137 26.178350,229.672562 17.131155,192.038773 
	C13.565009,177.204605 13.174442,161.935913 14.130255,146.775833 
	C15.395082,126.714493 20.163750,107.355003 29.410429,89.442085 
	C38.072769,72.661148 49.708420,58.220409 64.822540,46.508350 
	C84.406273,31.332758 106.323677,22.448036 130.757706,18.864069 
	C147.918488,16.346939 164.867477,16.445797 181.816299,19.951998 
	C184.878311,20.585440 187.896118,21.432549 190.568649,22.566359 
	C186.465805,24.358286 182.728638,25.764866 178.644318,27.253757 
	C176.483444,28.094389 174.613464,28.741665 172.864716,29.628103 
	C154.189850,39.094299 139.511749,53.036442 128.323151,70.549583 
	C124.235786,76.947411 121.384628,84.135033 117.969513,90.962357 
z"/>
<path fill="#945DD3" opacity="1.000000" stroke="none" 
	d="
M122.036194,159.852570 
	C123.299133,145.238480 122.292526,130.795120 127.798813,115.889053 
	C138.768158,120.890236 149.839737,124.969490 159.910416,130.782684 
	C171.633286,137.549606 182.509583,145.791336 193.691833,153.482361 
	C197.941391,156.405136 198.101273,158.219101 194.313232,161.057068 
	C179.885574,171.866089 165.306717,182.480408 148.791641,189.980713 
	C142.131714,193.005295 135.257904,195.558960 127.858444,198.581421 
	C122.392403,186.040833 123.898346,172.900894 122.036194,159.852570 
z"/>
<path fill="#311E76" opacity="1.000000" stroke="none" 
	d="
M191.066101,292.841675 
	C186.461868,291.152863 182.133224,289.162567 177.714676,287.397247 
	C163.651489,281.778656 151.753845,272.874695 141.621307,261.940765 
	C131.784180,251.325623 123.834412,239.197098 117.980759,225.477356 
	C119.522972,224.132278 120.933380,222.766037 122.608910,222.232681 
	C130.141205,219.835068 137.748795,217.674026 145.704346,215.690536 
	C147.024750,218.060898 148.026031,220.145279 148.906815,222.279404 
	C158.738174,246.101501 170.755554,268.447723 190.861053,285.476013 
	C192.933533,287.231262 194.308365,289.810272 196.006897,292.007019 
	C194.438095,292.219055 192.869308,292.431091 191.066101,292.841675 
z"/>
<path fill="#9A60D7" opacity="1.000000" stroke="none" 
	d="
M215.994873,170.218613 
	C221.770157,165.166992 221.891022,165.033936 228.147385,170.716751 
	C237.797073,179.481750 247.828674,187.925110 256.665283,197.462021 
	C268.336273,210.057907 278.833221,223.647537 284.290222,240.432419 
	C285.260956,243.418198 284.745728,245.120285 282.631622,246.830963 
	C279.335602,249.497986 276.008423,252.126495 272.065765,254.761627 
	C270.532990,253.209030 269.680695,251.632965 268.716858,250.128342 
	C257.544464,232.687134 246.416946,215.216446 235.103134,197.867325 
	C233.426270,195.295959 230.815826,193.342407 228.694199,191.050354 
	C223.060944,184.964584 217.430405,178.867310 215.994873,170.218613 
z"/>
<path fill="#321E76" opacity="1.000000" stroke="none" 
	d="
M118.208389,91.262344 
	C121.384628,84.135033 124.235786,76.947411 128.323151,70.549583 
	C139.511749,53.036442 154.189850,39.094299 172.864716,29.628103 
	C174.613464,28.741665 176.483444,28.094389 178.645920,27.672699 
	C177.371994,32.943043 176.650742,38.455357 173.934494,42.687195 
	C168.660812,50.903507 161.659027,58.021263 156.494064,66.293961 
	C150.381989,76.083649 145.454178,86.612740 140.013046,96.821327 
	C132.824463,95.068329 125.635864,93.315331 118.208389,91.262344 
z"/>
<path fill="#985FD5" opacity="1.000000" stroke="none" 
	d="
M275.002136,63.164783 
	C278.113098,65.412865 281.396973,67.471039 284.217102,70.038567 
	C284.949463,70.705322 284.531860,73.047493 284.133759,74.478630 
	C280.837311,86.329033 274.187988,96.418617 266.542633,105.750610 
	C259.754486,114.036285 252.498993,122.012566 244.807404,129.462158 
	C238.263489,135.800186 230.804245,141.193176 223.465836,146.717041 
	C240.275681,121.313774 257.242920,96.109375 274.619598,71.190514 
	C276.861542,67.975456 276.307770,65.904793 275.002136,63.164783 
z"/>
<path fill="#38217C" opacity="1.000000" stroke="none" 
	d="
M196.351532,291.984558 
	C194.308365,289.810272 192.933533,287.231262 190.861053,285.476013 
	C170.755554,268.447723 158.738174,246.101501 148.906815,222.279404 
	C148.026031,220.145279 147.024750,218.060898 146.044785,215.603210 
	C149.089966,213.845093 152.169800,212.437164 155.639572,211.339218 
	C160.650116,225.185120 166.442093,238.072067 174.253235,250.197449 
	C183.856857,265.105286 198.275955,275.185669 209.973770,287.954285 
	C206.904648,288.957397 203.835526,289.960480 200.115814,291.028137 
	C198.998398,291.323639 198.531586,291.554565 198.064789,291.785492 
	C197.608582,291.844360 197.152390,291.903229 196.351532,291.984558 
z"/>
<path fill="#38217C" opacity="1.000000" stroke="none" 
	d="
M140.325729,96.995964 
	C145.454178,86.612740 150.381989,76.083649 156.494064,66.293961 
	C161.659027,58.021263 168.660812,50.903507 173.934494,42.687195 
	C176.650742,38.455357 177.371994,32.943043 178.993103,27.590389 
	C182.728638,25.764866 186.465805,24.358286 190.591217,22.965975 
	C192.510101,22.796524 194.040695,22.612803 195.782684,23.082708 
	C195.646942,25.174482 195.646225,26.831585 194.897598,28.015953 
	C189.177628,37.065319 183.930573,46.507389 177.353546,54.900356 
	C166.113495,69.243828 156.070724,84.076729 151.015900,101.810204 
	C147.556732,100.263672 144.097580,98.717133 140.325729,96.995964 
z"/>
<path fill="#8C57CB" opacity="1.000000" stroke="none" 
	d="
M260.787994,52.006382 
	C263.108185,53.454689 265.428375,54.902996 267.593353,56.800468 
	C266.040527,59.657623 264.725952,62.118454 263.232483,64.465454 
	C248.007858,88.391174 232.815140,112.337906 217.395142,136.137283 
	C216.132858,138.085464 213.266388,138.994263 211.145309,140.386017 
	C209.833176,139.477142 208.521057,138.568253 207.199951,137.054047 
	C209.657654,132.909531 212.359787,129.509491 214.548111,125.805878 
	C221.996384,113.200081 228.933289,100.280731 236.693283,87.873795 
	C244.326828,75.669044 252.725220,63.942669 260.787994,52.006382 
z"/>
<path fill="#3F2682" opacity="1.000000" stroke="none" 
	d="
M151.323395,101.976639 
	C156.070724,84.076729 166.113495,69.243828 177.353546,54.900356 
	C183.930573,46.507389 189.177628,37.065319 194.897598,28.015953 
	C195.646225,26.831585 195.646942,25.174482 196.006378,23.342148 
	C196.475449,22.991842 196.932205,23.035721 197.952057,23.293804 
	C199.031570,23.662003 199.547974,23.816000 200.064392,23.969995 
	C202.218719,24.452738 204.373032,24.935482 206.628021,26.013386 
	C204.064606,31.000267 201.673401,35.588005 198.685516,39.747086 
	C189.568314,52.438019 179.639740,64.587975 171.172485,77.688850 
	C165.715652,86.131851 162.272446,95.876282 157.926758,105.037437 
	C155.828125,104.072655 153.729507,103.107872 151.323395,101.976639 
z"/>
<path fill="#3F2682" opacity="1.000000" stroke="none" 
	d="
M210.356049,287.933838 
	C198.275955,275.185669 183.856857,265.105286 174.253235,250.197449 
	C166.442093,238.072067 160.650116,225.185120 155.994598,211.263977 
	C157.779022,209.786728 159.598373,208.694717 161.753937,207.831833 
	C164.186890,212.924988 166.519806,217.702744 168.334900,222.669693 
	C173.270218,236.175110 180.790176,248.039917 190.821930,258.250946 
	C199.750092,267.338654 208.982697,276.127258 218.080933,285.047852 
	C216.584564,285.682220 215.088211,286.316620 213.110687,287.058838 
	C212.469498,287.263580 212.328583,287.383026 212.206802,287.525085 
	C211.717300,287.654510 211.227814,287.783966 210.356049,287.933838 
z"/>
<path fill="#8553C4" opacity="1.000000" stroke="none" 
	d="
M260.711792,51.676186 
	C252.725220,63.942669 244.326828,75.669044 236.693283,87.873795 
	C228.933289,100.280731 221.996384,113.200081 214.548111,125.805878 
	C212.359787,129.509491 209.657654,132.909531 207.076782,136.769440 
	C205.491013,136.073334 204.019485,135.056473 202.312805,133.501129 
	C204.010818,129.723969 205.972076,126.501694 207.872421,123.243896 
	C217.969513,105.934196 227.872162,88.507584 238.217255,71.347595 
	C243.076385,63.287479 248.777191,55.734768 254.096558,47.952110 
	C256.276245,49.083405 258.455902,50.214695 260.711792,51.676186 
z"/>
<path fill="#5D399F" opacity="1.000000" stroke="none" 
	d="
M226.047073,32.965355 
	C227.942520,33.764145 229.837952,34.562935 231.600540,35.785248 
	C229.218887,39.063484 227.087326,42.020443 224.701736,44.755852 
	C211.960526,59.365379 200.441895,74.830833 193.174210,92.938957 
	C189.539291,101.995705 187.030746,111.504539 184.012756,120.808899 
	C181.773132,119.427513 179.533524,118.046120 177.162384,115.986420 
	C181.276016,103.995529 184.284607,91.996536 190.085098,81.547356 
	C197.045074,69.009399 206.252747,57.695976 214.759552,46.051323 
	C218.146545,41.415005 222.262817,37.311451 226.047073,32.965355 
z"/>
<path fill="#6640A8" opacity="1.000000" stroke="none" 
	d="
M184.308304,120.964294 
	C187.030746,111.504539 189.539291,101.995705 193.174210,92.938957 
	C200.441895,74.830833 211.960526,59.365379 224.701736,44.755852 
	C227.087326,42.020443 229.218887,39.063484 231.782913,36.081573 
	C233.982361,36.756088 235.866592,37.557796 237.612122,38.783646 
	C232.648209,45.310215 227.770752,51.372227 223.009125,57.523880 
	C214.255508,68.832848 205.676361,80.210526 200.771362,93.931610 
	C197.140564,104.088318 192.920502,114.034363 188.962936,124.074257 
	C187.509903,123.089401 186.056885,122.104546 184.308304,120.964294 
z"/>
<path fill="#7E4FBE" opacity="1.000000" stroke="none" 
	d="
M253.949554,47.645218 
	C248.777191,55.734768 243.076385,63.287479 238.217255,71.347595 
	C227.872162,88.507584 217.969513,105.934196 207.872421,123.243896 
	C205.972076,126.501694 204.010818,129.723969 202.034119,133.297791 
	C200.843613,132.771408 199.696671,131.909851 198.315887,130.537827 
	C202.516998,120.760384 206.999008,111.515594 211.377258,102.221939 
	C221.220551,81.327690 235.330551,63.252419 249.100220,44.949139 
	C250.667664,45.745533 252.235092,46.541931 253.949554,47.645218 
z"/>
<path fill="#6F45B0" opacity="1.000000" stroke="none" 
	d="
M189.109512,124.362091 
	C192.920502,114.034363 197.140564,104.088318 200.771362,93.931610 
	C205.676361,80.210526 214.255508,68.832848 223.009125,57.523880 
	C227.770752,51.372227 232.648209,45.310215 237.789398,39.081001 
	C239.988770,39.755180 241.872192,40.556133 243.613831,41.783619 
	C241.710724,44.597488 239.921570,46.964874 238.192719,49.375523 
	C229.600098,61.356754 219.914185,72.727325 212.745926,85.508980 
	C205.237610,98.896988 200.152069,113.643745 194.007584,127.796616 
	C192.423752,126.747711 190.839920,125.698814 189.109512,124.362091 
z"/>
<path fill="#784AB7" opacity="1.000000" stroke="none" 
	d="
M194.289581,127.944008 
	C200.152069,113.643745 205.237610,98.896988 212.745926,85.508980 
	C219.914185,72.727325 229.600098,61.356754 238.192719,49.375523 
	C239.921570,46.964874 241.710724,44.597488 243.788727,42.082802 
	C245.673782,42.749756 247.242188,43.544060 248.955414,44.643749 
	C235.330551,63.252419 221.220551,81.327690 211.377258,102.221939 
	C206.999008,111.515594 202.516998,120.760384 198.045135,130.375214 
	C196.862640,129.845871 195.717117,128.968628 194.289581,127.944008 
z"/>
<path fill="#8D58CC" opacity="1.000000" stroke="none" 
	d="
M198.956741,183.891907 
	C200.422531,182.648804 201.888321,181.405701 203.785385,180.350555 
	C213.484680,190.703110 223.327866,200.409164 231.883698,211.141495 
	C244.221466,226.617844 255.339691,243.021851 263.996704,260.940308 
	C262.563171,261.891449 261.129669,262.842621 259.170349,263.648132 
	C253.958633,255.287643 249.677795,246.807114 244.501343,238.913925 
	C234.116898,223.079468 222.358841,208.306503 208.710312,195.082016 
	C205.169327,191.651062 202.192627,187.637726 198.956741,183.891907 
z"/>
<path fill="#533395" opacity="1.000000" stroke="none" 
	d="
M225.839218,32.690975 
	C222.262817,37.311451 218.146545,41.415005 214.759552,46.051323 
	C206.252747,57.695976 197.045074,69.009399 190.085098,81.547356 
	C184.284607,91.996536 181.276016,103.995529 176.993408,115.701523 
	C174.767181,114.913147 172.578415,113.731339 170.270096,111.915680 
	C177.629486,86.301003 191.039139,64.766251 208.005936,45.173996 
	C211.957001,40.611538 214.715714,35.016518 218.023041,29.896593 
	C218.475876,29.956066 218.928711,30.015541 219.870178,30.300709 
	C220.577881,30.710161 220.819000,30.858004 221.082138,30.969929 
	C222.598541,31.452152 224.114960,31.934374 225.839218,32.690975 
z"/>
<path fill="#462B89" opacity="1.000000" stroke="none" 
	d="
M218.426666,285.017761 
	C208.982697,276.127258 199.750092,267.338654 190.821930,258.250946 
	C180.790176,248.039917 173.270218,236.175110 168.334900,222.669693 
	C166.519806,217.702744 164.186890,212.924988 162.051041,207.717743 
	C163.431534,206.589645 164.851166,205.804779 166.649719,205.334717 
	C171.171997,214.491089 174.998077,223.499222 179.531433,232.136078 
	C186.736053,245.862183 197.956314,256.161987 209.309113,266.433594 
	C214.583969,271.206085 218.496262,277.484589 223.026230,283.080383 
	C221.608292,283.716125 220.190353,284.351868 218.426666,285.017761 
z"/>
<path fill="#5D399F" opacity="1.000000" stroke="none" 
	d="
M173.949997,200.903488 
	C175.093292,200.019501 176.236588,199.135498 177.819885,198.515747 
	C179.936157,200.825958 181.832703,202.730225 183.254135,204.940063 
	C195.611862,224.152344 209.834702,241.838791 225.635635,258.345886 
	C230.589111,263.520782 235.658966,269.132629 236.025787,277.083862 
	C235.579834,277.383820 235.133881,277.683746 234.074142,277.899200 
	C232.542664,276.682556 231.643997,275.534332 230.704193,274.420868 
	C225.171173,267.865540 219.737488,261.221954 214.057266,254.796478 
	C208.817352,248.869095 202.648209,243.654404 198.062607,237.280960 
	C189.572525,225.480743 181.939804,213.063644 173.949997,200.903488 
z"/>
<path fill="#915AD0" opacity="1.000000" stroke="none" 
	d="
M211.327927,140.667297 
	C213.266388,138.994263 216.132858,138.085464 217.395142,136.137283 
	C232.815140,112.337906 248.007858,88.391174 263.232483,64.465454 
	C264.725952,62.118454 266.040527,59.657623 267.753296,57.109703 
	C268.970490,57.738979 269.872559,58.508190 270.883911,59.965111 
	C270.315247,62.821167 270.064453,65.260376 268.889374,67.113487 
	C261.795319,78.300987 254.699829,89.498558 247.203751,100.417427 
	C236.999359,115.281273 226.435089,129.898056 216.025146,144.620789 
	C214.520264,143.396713 213.015411,142.172653 211.327927,140.667297 
z"/>
<path fill="#945CD3" opacity="1.000000" stroke="none" 
	d="
M216.303345,144.837509 
	C226.435089,129.898056 236.999359,115.281273 247.203751,100.417427 
	C254.699829,89.498558 261.795319,78.300987 268.889374,67.113487 
	C270.064453,65.260376 270.315247,62.821167 270.994141,60.243462 
	C272.121033,60.842079 273.246918,61.850056 274.687500,63.011406 
	C276.307770,65.904793 276.861542,67.975456 274.619598,71.190514 
	C257.242920,96.109375 240.275681,121.313774 223.112885,146.775726 
	C221.935791,147.465546 220.585876,148.371674 219.775162,148.023224 
	C218.517563,147.482727 217.627457,146.087234 216.303345,144.837509 
z"/>
<path fill="#543497" opacity="1.000000" stroke="none" 
	d="
M173.626801,200.955780 
	C181.939804,213.063644 189.572525,225.480743 198.062607,237.280960 
	C202.648209,243.654404 208.817352,248.869095 214.057266,254.796478 
	C219.737488,261.221954 225.171173,267.865540 230.704193,274.420868 
	C231.643997,275.534332 232.542664,276.682556 233.786026,277.933777 
	C232.292267,278.938171 230.472824,279.823517 228.156265,280.475769 
	C222.387070,273.941467 217.750473,266.938568 211.718811,261.476166 
	C196.197083,247.419327 184.229507,230.970718 175.517944,212.033371 
	C174.008484,208.752075 172.512360,205.464661 171.010071,202.180054 
	C171.774582,201.789398 172.539093,201.398727 173.626801,200.955780 
z"/>
<path fill="#955DD4" opacity="1.000000" stroke="none" 
	d="
M215.667160,170.257477 
	C217.430405,178.867310 223.060944,184.964584 228.694199,191.050354 
	C230.815826,193.342407 233.426270,195.295959 235.103134,197.867325 
	C246.416946,215.216446 257.544464,232.687134 268.716858,250.128342 
	C269.680695,251.632965 270.532990,253.209030 271.752167,254.893036 
	C270.758850,255.821793 269.450500,256.609436 267.680786,257.540558 
	C255.618256,236.157913 242.170914,215.891983 226.050308,197.457031 
	C220.046005,190.590729 213.993896,183.766251 207.963593,176.922729 
	C210.422211,174.713928 212.880829,172.505142 215.667160,170.257477 
z"/>
<path fill="#452A89" opacity="1.000000" stroke="none" 
	d="
M158.127258,105.312836 
	C162.272446,95.876282 165.715652,86.131851 171.172485,77.688850 
	C179.639740,64.587975 189.568314,52.438019 198.685516,39.747086 
	C201.673401,35.588005 204.064606,31.000267 206.873627,26.284260 
	C207.479401,26.009680 207.940216,26.059385 208.885345,26.329971 
	C209.577835,26.724163 209.806122,26.864832 210.054520,26.972857 
	C210.910583,27.126640 211.766647,27.280426 212.668259,28.011713 
	C210.231400,32.494457 208.062042,36.646431 205.212357,40.262211 
	C192.891861,55.894901 180.351959,71.405869 171.589645,89.403290 
	C168.586227,95.572159 167.133057,102.495804 164.971649,109.074615 
	C162.757019,107.912491 160.542389,106.750366 158.127258,105.312836 
z"/>
<path fill="#4D2F8F" opacity="1.000000" stroke="none" 
	d="
M170.699982,202.227173 
	C172.512360,205.464661 174.008484,208.752075 175.517944,212.033371 
	C184.229507,230.970718 196.197083,247.419327 211.718811,261.476166 
	C217.750473,266.938568 222.387070,273.941467 227.816650,280.537994 
	C227.474808,281.178711 226.975449,281.524078 226.051376,282.026611 
	C225.452347,282.287811 225.302307,282.419495 225.176514,282.578796 
	C224.704056,282.710114 224.231613,282.841461 223.392700,283.026611 
	C218.496262,277.484589 214.583969,271.206085 209.309113,266.433594 
	C197.956314,256.161987 186.736053,245.862183 179.531433,232.136078 
	C174.998077,223.499222 171.171997,214.491089 166.994537,205.268005 
	C168.103607,204.015747 169.246750,203.145004 170.699982,202.227173 
z"/>
<path fill="#7F50BF" opacity="1.000000" stroke="none" 
	d="
M256.105194,266.047241 
	C254.664825,267.023834 253.224426,268.000397 251.120743,268.865479 
	C246.242615,261.294739 242.929871,253.111191 237.636307,246.518021 
	C224.145737,229.715393 209.723328,213.662918 195.803009,197.201019 
	C193.834229,194.872787 192.586990,191.934372 191.005798,189.278381 
	C192.099884,188.520081 193.193970,187.761765 194.707672,187.288544 
	C202.664047,196.127258 210.153427,204.723206 217.748047,213.225143 
	C231.051743,228.118225 243.636810,243.504745 252.401779,261.654907 
	C253.208572,263.325562 254.850876,264.592712 256.105194,266.047241 
z"/>
<path fill="#8654C5" opacity="1.000000" stroke="none" 
	d="
M256.419952,266.004395 
	C254.850876,264.592712 253.208572,263.325562 252.401779,261.654907 
	C243.636810,243.504745 231.051743,228.118225 217.748047,213.225143 
	C210.153427,204.723206 202.664047,196.127258 195.043930,187.234283 
	C196.079468,185.939285 197.198349,184.983643 198.636993,183.959946 
	C202.192627,187.637726 205.169327,191.651062 208.710312,195.082016 
	C222.358841,208.306503 234.116898,223.079468 244.501343,238.913925 
	C249.677795,246.807114 253.958633,255.287643 258.865997,263.775421 
	C258.303162,264.686096 257.518951,265.323822 256.419952,266.004395 
z"/>
<path fill="#4C2E8E" opacity="1.000000" stroke="none" 
	d="
M165.161041,109.341309 
	C167.133057,102.495804 168.586227,95.572159 171.589645,89.403290 
	C180.351959,71.405869 192.891861,55.894901 205.212357,40.262211 
	C208.062042,36.646431 210.231400,32.494457 212.867554,28.273998 
	C213.513260,28.019516 214.005249,28.080250 214.944519,28.388622 
	C215.546967,28.769047 215.718857,28.874540 215.907516,28.952740 
	C216.502579,29.093233 217.097641,29.233727 217.857880,29.635406 
	C214.715714,35.016518 211.957001,40.611538 208.005936,45.173996 
	C191.039139,64.766251 177.629486,86.301003 170.066376,111.644463 
	C168.438293,111.207390 166.894363,110.407692 165.161041,109.341309 
z"/>
<path fill="#653FA7" opacity="1.000000" stroke="none" 
	d="
M236.373993,277.026123 
	C235.658966,269.132629 230.589111,263.520782 225.635635,258.345886 
	C209.834702,241.838791 195.611862,224.152344 183.254135,204.940063 
	C181.832703,202.730225 179.936157,200.825958 178.137787,198.481262 
	C179.148972,197.250946 180.282288,196.319366 181.748337,195.503250 
	C182.081085,195.618713 182.104706,195.962616 182.155243,196.302216 
	C184.691925,199.919907 187.103561,203.257736 189.677536,206.465317 
	C198.995239,218.076614 208.438599,229.587677 217.695648,241.246841 
	C224.579422,249.916901 231.284714,258.729889 237.985825,267.542816 
	C239.531754,269.575958 240.735687,271.869141 242.097000,274.042633 
	C240.305405,275.017883 238.513809,275.993134 236.373993,277.026123 
z"/>
<path fill="#784AB7" opacity="1.000000" stroke="none" 
	d="
M190.700073,189.332367 
	C192.586990,191.934372 193.834229,194.872787 195.803009,197.201019 
	C209.723328,213.662918 224.145737,229.715393 237.636307,246.518021 
	C242.929871,253.111191 246.242615,261.294739 250.781708,268.900024 
	C250.282990,269.638855 249.460037,270.231659 248.026321,270.784546 
	C240.563919,260.609680 234.254456,250.050079 226.729355,240.442627 
	C216.297958,227.124619 204.913513,214.555283 194.028641,201.588608 
	C191.489761,198.564133 189.319183,195.230530 186.979141,192.039154 
	C188.117538,191.154877 189.255951,190.270599 190.700073,189.332367 
z"/>
<path fill="#915AD0" opacity="1.000000" stroke="none" 
	d="
M207.662415,177.039734 
	C213.993896,183.766251 220.046005,190.590729 226.050308,197.457031 
	C242.170914,215.891983 255.618256,236.157913 267.514587,257.839661 
	C266.748077,258.930969 265.686432,259.866669 264.310760,260.871338 
	C255.339691,243.021851 244.221466,226.617844 231.883698,211.141495 
	C223.327866,200.409164 213.484680,190.703110 204.090851,180.222992 
	C205.097107,178.990570 206.229172,178.073654 207.662415,177.039734 
z"/>
<path fill="#7147B2" opacity="1.000000" stroke="none" 
	d="
M186.659241,192.129669 
	C189.319183,195.230530 191.489761,198.564133 194.028641,201.588608 
	C204.913513,214.555283 216.297958,227.124619 226.729355,240.442627 
	C234.254456,250.050079 240.563919,260.609680 247.726913,270.889496 
	C247.586304,271.344788 247.134354,271.655182 246.198151,272.107666 
	C245.463638,272.410736 245.234146,272.597229 245.025406,272.809296 
	C244.862061,272.863312 244.698700,272.917328 244.136444,272.692383 
	C240.753052,267.055634 238.431183,261.171509 234.667313,256.432739 
	C219.797104,237.710815 204.537125,219.296051 189.236023,200.922012 
	C187.449677,198.776917 184.509811,197.592438 182.104706,195.962616 
	C182.104706,195.962616 182.081085,195.618713 182.057541,195.447983 
	C183.469101,194.258240 184.904221,193.239212 186.659241,192.129669 
z"/>
<path fill="#6C44AE" opacity="1.000000" stroke="none" 
	d="
M182.155243,196.302216 
	C184.509811,197.592438 187.449677,198.776917 189.236023,200.922012 
	C204.537125,219.296051 219.797104,237.710815 234.667313,256.432739 
	C238.431183,261.171509 240.753052,267.055634 243.883728,272.744690 
	C243.578964,273.376251 243.128006,273.676575 242.387024,274.009766 
	C240.735687,271.869141 239.531754,269.575958 237.985825,267.542816 
	C231.284714,258.729889 224.579422,249.916901 217.695648,241.246841 
	C208.438599,229.587677 198.995239,218.076614 189.677536,206.465317 
	C187.103561,203.257736 184.691925,199.919907 182.155243,196.302216 
z"/>
<path fill="#38217C" opacity="1.000000" stroke="none" 
	d="
M199.888062,23.742184 
	C199.547974,23.816000 199.031570,23.662003 198.290451,23.356663 
	C198.614410,23.308338 199.163086,23.411354 199.888062,23.742184 
z"/>
<path fill="#311E76" opacity="1.000000" stroke="none" 
	d="
M198.337708,291.797852 
	C198.531586,291.554565 198.998398,291.323639 199.724243,291.047699 
	C199.525711,291.271851 199.068161,291.541016 198.337708,291.797852 
z"/>
<path fill="#3F2682" opacity="1.000000" stroke="none" 
	d="
M209.944000,26.787514 
	C209.806122,26.864832 209.577835,26.724163 209.222778,26.413467 
	C209.394485,26.231312 209.647003,26.340008 209.944000,26.787514 
z"/>
<path fill="#4C2E8E" opacity="1.000000" stroke="none" 
	d="
M220.969421,30.769222 
	C220.819000,30.858004 220.577881,30.710161 220.203186,30.381552 
	C220.389816,30.170364 220.659546,30.280970 220.969421,30.769222 
z"/>
<path fill="#452A89" opacity="1.000000" stroke="none" 
	d="
M215.827316,28.813421 
	C215.718857,28.874540 215.546967,28.769047 215.289200,28.528122 
	C215.420135,28.401690 215.606979,28.486397 215.827316,28.813421 
z"/>
<path fill="#6C44AE" opacity="1.000000" stroke="none" 
	d="
M245.274506,272.815979 
	C245.234146,272.597229 245.463638,272.410736 245.909836,272.145508 
	C246.023376,272.384949 245.829315,272.645416 245.274506,272.815979 
z"/>
<path fill="#462B89" opacity="1.000000" stroke="none" 
	d="
M225.334061,282.555542 
	C225.302307,282.419495 225.452347,282.287811 225.760529,282.117371 
	C225.819626,282.261292 225.685364,282.421722 225.334061,282.555542 
z"/>
<path fill="#38217C" opacity="1.000000" stroke="none" 
	d="
M212.348572,287.494659 
	C212.328583,287.383026 212.469498,287.263580 212.752441,287.101593 
	C212.796127,287.223389 212.667786,287.365967 212.348572,287.494659 
z"/>
</svg>